<svg id="Layer_1" data-name="Layer 1" xmlns="http://www.w3.org/2000/svg" viewBox="0 0 339.66 84.16"><defs><style>.cls-1{fill:#003677;}.cls-2{fill:#9fdaf9;}.cls-3{fill:#ef003e;}</style></defs><title>Vector Smart Object</title><path class="cls-1" d="M107.6,62,95.23,31.16h8.67l8,21.43L120,31.16h8.67L116.33,62Z"/><path class="cls-1" d="M131.58,23a4.81,4.81,0,0,1,9.63,0,4.81,4.81,0,1,1-9.63,0Zm.77,39V31.16h8.1V62Z"/><path class="cls-1" d="M145.8,57.94l3.51-5.87A17.46,17.46,0,0,0,160,56.35c3.51,0,5.17-1.34,5.17-3.25,0-5-18.24-.89-18.24-13,0-5.17,4.46-9.69,12.63-9.69a19.62,19.62,0,0,1,12.37,4.21l-3.25,5.74a13.28,13.28,0,0,0-9.12-3.57c-2.93,0-4.85,1.28-4.85,3,0,4.53,18.3.7,18.3,13.14,0,5.68-4.85,9.82-13.39,9.82C154.22,62.72,149,60.94,145.8,57.94Z"/><path class="cls-1" d="M180.55,54.24v-16h-5.1V31.16h5.1V22.74h8.1v8.42h6.25v7.08h-6.25V52.07c0,2,1,3.44,2.81,3.44a4.07,4.07,0,0,0,2.81-1L196,60.75c-1.21,1.08-3.38,2-6.76,2C183.55,62.72,180.55,59.79,180.55,54.24Z"/><path class="cls-1" d="M200.45,62V31.16h8.1V35.3a13.51,13.51,0,0,1,9.82-4.91V38.3a10.37,10.37,0,0,0-2.23-.19c-2.68,0-6.25,1.53-7.59,3.51V62Z"/><path class="cls-1" d="M221.43,46.53c0-8.93,6.63-16.13,15.94-16.13s15.43,6.89,15.43,16.9v1.91H229.91c.57,3.76,3.63,6.89,8.86,6.89a12.88,12.88,0,0,0,8.16-3l3.64,5.36c-3.06,2.81-7.91,4.27-12.69,4.27C228.51,62.72,221.43,56.41,221.43,46.53ZM237.37,37a7.1,7.1,0,0,0-7.52,6.57H245C244.77,40.66,242.73,37,237.37,37Z"/><path class="cls-1" d="M277.17,62V58.71c-2.1,2.55-5.74,4-9.76,4-4.91,0-10.65-3.32-10.65-10.2,0-7.27,5.74-9.95,10.65-9.95,4.15,0,7.72,1.34,9.76,3.76V42.45c0-3.12-2.68-5.17-6.76-5.17a13,13,0,0,0-8.86,3.63l-3.19-5.68a19.88,19.88,0,0,1,13.46-4.85c7.08,0,13.52,2.81,13.52,11.67V62Zm0-7.4V50.74c-1.34-1.79-3.89-2.74-6.5-2.74-3.19,0-5.8,1.72-5.8,4.66s2.61,4.59,5.8,4.59C273.28,57.24,275.83,56.35,277.17,54.56Z"/><path class="cls-1" d="M331.5,62V42.51c0-2.87-1.28-4.91-4.59-4.91a8.18,8.18,0,0,0-6.38,3.57V62h-8.16V42.51c0-2.87-1.28-4.91-4.59-4.91a8.39,8.39,0,0,0-6.38,3.57V62h-8.1V31.16h8.1v4a13.8,13.8,0,0,1,10.08-4.72c4.53,0,7.46,2.1,8.55,5.55a13.19,13.19,0,0,1,10.59-5.55c5.68,0,9.06,3,9.06,9.31V62Z"/><path class="cls-2" d="M42.08,84.16A42.08,42.08,0,1,1,84.16,42.08,42.13,42.13,0,0,1,42.08,84.16Zm0-70.18a28.1,28.1,0,1,0,28.1,28.1A28.13,28.13,0,0,0,42.08,14Z"/><circle class="cls-3" cx="58.85" cy="25.3" r="12.58"/></svg>